<svg height="82" viewBox="0 0 82 82" width="82" xmlns="http://www.w3.org/2000/svg"><g fill="#fff"><circle cx="41" cy="41" fill="none" r="40" stroke="#fff" stroke-width="2"/><path d="m25.0535381.0099872-6.2443484-.0099872c-7.0153113 0-11.54891361 4.63655941-11.54891361 11.8128648v5.4465216h-6.27841304c-.54252943 0-.98186305.4384383-.98186305.9792454v7.8913891c0 .5408071.43983457.978746.98186305.978746h6.27841304v19.9124871c0 .5408071.43933362.978746.98186305.978746h8.19154316c.5425294 0 .981863-.4384383.981863-.978746v-19.9124871h7.3409291c.5425295 0 .9818631-.4379389.9818631-.978746l.0030057-7.8913891c0-.2596673-.1036968-.5083487-.2875456-.6921133-.1838489-.1837645-.4343241-.2871321-.6948184-.2871321h-7.3434339v-4.6170843c0-2.2191568.5305066-3.34571335 3.4305093-3.34571335l4.2064816-.00149808c.5420285 0 .9813621-.43843826.9813621-.97874599v-7.32761149c0-.53980837-.4388327-.97774727-.9803602-.97874599z" transform="translate(28.2 17)"/></g></svg>