<svg height="82" viewBox="0 0 82 82" width="82" xmlns="http://www.w3.org/2000/svg"><circle cx="41" cy="41" fill="none" r="40" stroke="#fff" stroke-width="2"/><path d="m25.054.01-6.245-.01c-7.015 0-11.549 4.637-11.549 11.813v5.447h-6.278a.98.98 0 0 0 -.982.979v7.891a.98.98 0 0 0 .982.979h6.278v19.912a.98.98 0 0 0 .982.979h8.192a.98.98 0 0 0 .982-.979v-19.912h7.341a.98.98 0 0 0 .982-.979v-7.891a.981.981 0 0 0 -.982-.979h-7.341v-4.618c0-2.219.531-3.346 3.431-3.346h4.206a.98.98 0 0 0 .981-.979v-7.328a.981.981 0 0 0 -.98-.979z" fill="#fff" transform="translate(28.2 17)"/></svg>