<svg height="82" viewBox="0 0 82 82" width="82" xmlns="http://www.w3.org/2000/svg"><circle cx="41" cy="41" fill="none" r="40" stroke="#fff" stroke-width="2"/><path d="m33.485 3.081a8.776 8.776 0 0 1 6.315 2.619.444.444 0 0 0 .308.154h.1a19.65 19.65 0 0 0 4.725-1.746c.051-.051.565-.308.668-.36a9.1 9.1 0 0 1 -3.852 4.879 19.8 19.8 0 0 0 2.517-.462 18.383 18.383 0 0 0 2.517-.873 14.651 14.651 0 0 1 -1.283 1.696 19.072 19.072 0 0 1 -2.979 2.773.366.366 0 0 0 -.154.308v1.541a26.128 26.128 0 0 1 -6.267 16.28 23.66 23.66 0 0 1 -12.069 7.6 27.885 27.885 0 0 1 -4.52.822h-4.311a16.812 16.812 0 0 1 -3.6-.462 25.278 25.278 0 0 1 -8-3.235l-.154-.154c.668.051 1.284.1 1.952.1a17.835 17.835 0 0 0 4.93-.668 16.7 16.7 0 0 0 6.163-3.133 9.08 9.08 0 0 1 -8.274-6.16 8.3 8.3 0 0 0 1.592.1 9.326 9.326 0 0 0 2.362-.308 8.935 8.935 0 0 1 -5.084-3.184 8.733 8.733 0 0 1 -1.952-5.7 8.308 8.308 0 0 0 3.955 1.081 8.976 8.976 0 0 1 -2.67-11.864 2.572 2.572 0 0 1 .36.411 25.078 25.078 0 0 0 14.072 8.371 29.655 29.655 0 0 0 3.646.514h.202c.1 0 .1-.051.1-.205a9.152 9.152 0 0 1 -.154-2.362 8.581 8.581 0 0 1 3.081-6.214 8.1 8.1 0 0 1 4.828-2.106c.205 0 .565-.051.924-.051zm0-3.081a11.608 11.608 0 0 0 -1.335.051 11.746 11.746 0 0 0 -6.574 2.876 11.754 11.754 0 0 0 -4.057 7.6h-.1a21.819 21.819 0 0 1 -12.377-7.4l-.205-.257-.1-.154a3.112 3.112 0 0 0 -2.369-1.073h-.308a2.958 2.958 0 0 0 -2.36 1.541 11.831 11.831 0 0 0 -1.284 8.628 8.784 8.784 0 0 0 .462 1.541 3.183 3.183 0 0 0 -.822 2.106 11.548 11.548 0 0 0 2.671 7.6 7.683 7.683 0 0 0 .565.668 3.251 3.251 0 0 0 .1 1.849 13.116 13.116 0 0 0 3.7 5.341 14.485 14.485 0 0 1 -3.646.462c-.514 0-1.079-.051-1.643-.1h-.311a2.993 2.993 0 0 0 -2.722 1.693 3.131 3.131 0 0 0 .411 3.441 2.976 2.976 0 0 0 .873.719 27.851 27.851 0 0 0 8.988 3.646 26.08 26.08 0 0 0 4.211.565h3.7a5.281 5.281 0 0 0 .924-.051 27.744 27.744 0 0 0 5.084-.924 25.268 25.268 0 0 0 13.456-8.525 28.681 28.681 0 0 0 6.983-17.874 1.252 1.252 0 0 0 0-.616 26.206 26.206 0 0 0 2.414-2.362c.565-.668 1.027-1.284 1.489-1.952a3.077 3.077 0 0 0 -.77-4.314 2.953 2.953 0 0 0 -.976-3.338 3.159 3.159 0 0 0 -1.951-.719 3.1 3.1 0 0 0 -1.489.411l-.1.051a4.751 4.751 0 0 1 -.514.257 15.289 15.289 0 0 1 -2.722 1.13 11.636 11.636 0 0 0 -7.296-2.517z" fill="#fff" transform="translate(16.2 20.2)"/></svg>