<svg height="82" viewBox="0 0 82 82" width="82" xmlns="http://www.w3.org/2000/svg"><g fill="#fff"><circle cx="41" cy="41" fill="none" r="40" stroke="#fff" stroke-width="2"/><path d="M53.254 17.01L47.009 17c-7.015 0-11.549 4.637-11.549 11.813v5.446h-6.278a.98.98 0 00-.982.98v7.891c0 .54.44.979.982.979h6.278V64.02c0 .541.44.979.982.979h8.192a.98.98 0 00.982-.979V44.11h7.34a.98.98 0 00.982-.979l.003-7.891a.979.979 0 00-.982-.98h-7.343v-4.617c0-2.219.53-3.345 3.43-3.345l4.207-.002a.98.98 0 00.98-.979V17.99a.98.98 0 00-.98-.979z"/></g></svg>