<svg height="428" viewBox="0 0 433 428" width="433" xmlns="http://www.w3.org/2000/svg"><g fill="none" fill-rule="evenodd"><g font-family="Helvetica-Bold, Helvetica" font-weight="bold"><g fill="#fff" font-size="75" letter-spacing="-.234"><text transform="translate(-3 -19)"><tspan x="0" y="73">Hate</tspan></text><text transform="translate(-3 -19)"><tspan x="0" y="146">Crime</tspan></text><text transform="translate(-3 -19)"><tspan x="0" y="219">Hurts</tspan></text><text transform="translate(-3 -19)"><tspan x="0" y="292">Stop</tspan></text><text transform="translate(-3 -19)"><tspan x="0" y="365">It</tspan></text><text transform="translate(-3 -19)"><tspan x="0" y="438">Here</tspan></text></g><g fill="red" font-size="97" letter-spacing="-.303"><text transform="translate(-3 -19)"><tspan x="192" y="219">.</tspan></text><text transform="translate(-3 -19)"><tspan x="165" y="438">.</tspan></text></g></g><g fill="#fffffe"><path d="M286.303 372h8.493c1.4 0 2.552.208 3.46.624 1.723.797 2.585 2.268 2.585 4.413 0 1.12-.23 2.035-.693 2.748-.462.712-1.109 1.285-1.94 1.717.73.297 1.278.687 1.647 1.17s.575 1.267.617 2.353l.09 2.505c.024.713.084 1.243.177 1.59.153.594.424.976.814 1.145v.42h-3.103a2.328 2.328 0 01-.204-.624c-.05-.254-.093-.745-.127-1.475l-.153-3.116c-.057-1.221-.498-2.04-1.322-2.454-.47-.23-1.207-.344-2.212-.344h-5.598v8.013h-2.53zm8.221 8.56c1.154 0 2.067-.237 2.74-.712.672-.475 1.008-1.331 1.008-2.57 0-1.33-.47-2.238-1.41-2.721-.503-.254-1.175-.381-2.016-.381h-6.012v6.384zM312.918 377.438c.902.454 1.589 1.04 2.06 1.762.456.686.759 1.488.91 2.403.136.628.203 1.628.203 3.002h-9.908c.042 1.386.366 2.498.972 3.336.606.837 1.544 1.256 2.814 1.256 1.186 0 2.133-.396 2.84-1.19.395-.458.675-.991.84-1.596h2.25c-.058.5-.255 1.058-.59 1.673s-.71 1.117-1.121 1.507c-.69.678-1.544 1.136-2.563 1.374a7.753 7.753 0 01-1.855.203c-1.685 0-3.114-.617-4.285-1.85-1.171-1.234-1.757-2.962-1.757-5.184 0-2.187.59-3.964 1.77-5.328 1.18-1.366 2.722-2.048 4.626-2.048.96 0 1.892.227 2.794.68zm.82 5.349c-.093-.993-.307-1.786-.643-2.38-.622-1.101-1.661-1.653-3.116-1.653-1.042 0-1.916.38-2.623 1.139-.706.759-1.08 1.723-1.122 2.894zM327.99 377.788c.962.746 1.54 2.03 1.736 3.854H327.5c-.136-.84-.446-1.537-.93-2.093-.482-.555-1.258-.833-2.326-.833-1.46 0-2.502.712-3.13 2.135-.407.923-.61 2.062-.61 3.416 0 1.364.288 2.512.865 3.444.576.93 1.484 1.396 2.722 1.396.949 0 1.702-.29 2.258-.867.555-.58.938-1.37 1.15-2.376h2.226c-.254 1.807-.89 3.127-1.907 3.962-1.018.836-2.32 1.253-3.905 1.253-1.781 0-3.201-.651-4.261-1.952-1.06-1.302-1.59-2.928-1.59-4.878 0-2.391.58-4.252 1.742-5.584 1.162-1.331 2.642-1.997 4.44-1.997 1.534 0 2.783.374 3.745 1.12M341.885 378.422c1.204 1.17 1.806 2.89 1.806 5.16 0 2.194-.53 4.007-1.59 5.438-1.062 1.432-2.708 2.148-4.939 2.148-1.862 0-3.339-.633-4.433-1.9-1.095-1.266-1.643-2.967-1.643-5.102 0-2.287.577-4.109 1.73-5.464 1.154-1.356 2.703-2.034 4.648-2.034 1.743 0 3.217.585 4.421 1.754m-1.422 9.053c.558-1.147.837-2.424.837-3.83 0-1.27-.2-2.303-.604-3.099-.637-1.254-1.735-1.88-3.295-1.88-1.384 0-2.389.533-3.018 1.6s-.944 2.355-.944 3.862c0 1.448.315 2.655.944 3.62.63.966 1.626 1.448 2.993 1.448 1.5 0 2.53-.573 3.087-1.72M354.075 377.61c.431.297.87.729 1.318 1.297v-1.717h2.111v12.388c0 1.73-.254 3.095-.76 4.096-.947 1.848-2.734 2.773-5.362 2.773-1.463 0-2.692-.33-3.689-.986-.998-.657-1.556-1.685-1.674-3.084h2.328c.11.61.328 1.08.657 1.41.514.51 1.324.764 2.43.764 1.745 0 2.887-.62 3.427-1.856.321-.73.468-2.031.443-3.905-.457.695-1.005 1.212-1.647 1.552-.642.339-1.49.508-2.547.508-1.469 0-2.756-.523-3.858-1.57-1.102-1.048-1.653-2.78-1.653-5.196 0-2.281.555-4.062 1.666-5.342s2.452-1.921 4.022-1.921c1.065 0 1.994.263 2.788.789m.28 2.454c-.69-.813-1.573-1.221-2.645-1.221-1.602 0-2.699.755-3.29 2.264-.312.806-.468 1.862-.468 3.167 0 1.535.31 2.703.93 3.504.62.802 1.453 1.203 2.5 1.203 1.636 0 2.787-.742 3.454-2.226.371-.84.557-1.82.557-2.938 0-1.688-.346-2.94-1.038-3.753M360.99 377.062h2.174v1.934c.644-.798 1.327-1.37 2.048-1.718.72-.347 1.522-.52 2.404-.52 1.933 0 3.24.673 3.917 2.021.373.738.56 1.794.56 3.167v8.738h-2.328V382.1c0-.83-.123-1.5-.369-2.01-.407-.848-1.144-1.272-2.213-1.272-.543 0-.987.056-1.335.166-.628.186-1.179.56-1.654 1.12-.38.448-.629.913-.744 1.392-.114.48-.17 1.164-.17 2.054v7.135h-2.29zM375.476 372.001h2.328v2.594h-2.328zm0 5.125h2.328v13.559h-2.328zM382.624 386.411c.069.763.264 1.348.585 1.755.588.738 1.609 1.107 3.063 1.107.865 0 1.627-.185 2.285-.554.657-.368.987-.939.987-1.71 0-.585-.264-1.03-.79-1.336-.335-.186-1-.402-1.99-.648l-1.848-.458c-1.18-.289-2.051-.61-2.611-.967-1-.619-1.5-1.475-1.5-2.569 0-1.289.47-2.332 1.412-3.129s2.206-1.195 3.796-1.195c2.08 0 3.579.602 4.498 1.806.576.762.855 1.585.838 2.467h-2.162a2.593 2.593 0 00-.56-1.404c-.538-.599-1.471-.898-2.8-.898-.884 0-1.555.164-2.011.494-.455.33-.683.765-.683 1.305 0 .592.299 1.065.898 1.42.346.211.855.397 1.529.558l1.543.37c1.676.398 2.799.784 3.369 1.157.89.585 1.336 1.505 1.336 2.76 0 1.212-.467 2.26-1.398 3.142-.931.881-2.35 1.322-4.256 1.322-2.051 0-3.505-.46-4.36-1.38s-1.31-2.058-1.37-3.415zM402.701 377.438c.902.454 1.589 1.04 2.06 1.762.456.686.759 1.488.911 2.403.135.628.202 1.628.202 3.002h-9.908c.042 1.386.366 2.498.972 3.336.605.837 1.544 1.256 2.814 1.256 1.186 0 2.133-.396 2.84-1.19.395-.458.675-.991.84-1.596h2.251c-.059.5-.256 1.058-.591 1.673s-.709 1.117-1.121 1.507c-.691.678-1.545 1.136-2.563 1.374a7.753 7.753 0 01-1.855.203c-1.685 0-3.114-.617-4.285-1.85-1.171-1.234-1.757-2.962-1.757-5.184 0-2.187.59-3.964 1.77-5.328 1.18-1.366 2.722-2.048 4.626-2.048.961 0 1.892.227 2.794.68zm.82 5.349c-.093-.993-.307-1.786-.643-2.38-.622-1.101-1.661-1.653-3.116-1.653-1.042 0-1.916.38-2.623 1.139-.706.759-1.08 1.723-1.122 2.894zM416.011 372.001h2.328v2.594h-2.328zm0 5.125h2.328v13.559h-2.328zM422.256 373.26h2.315v3.803h2.174v1.87h-2.174v8.89c0 .475.16.793.483.955.178.093.475.139.89.139a5.489 5.489 0 00.801-.05v1.818c-.262.076-.536.13-.82.165s-.59.052-.922.052c-1.068 0-1.793-.274-2.175-.821-.38-.547-.572-1.257-.572-2.13v-9.018h-1.844v-1.87h1.844zM429.582 387.912h2.658v2.773h-2.658z"/></g><g fill="#d8232a"><path d="M298.012 403.678a4.618 4.618 0 011.755 1.31c.397.475.711 1.001.943 1.577.231.577.347 1.234.347 1.972 0 .89-.225 1.766-.674 2.626-.449.861-1.19 1.47-2.226 1.825.865.348 1.477.842 1.838 1.482.36.64.541 1.618.541 2.932v1.26c0 .856.034 1.437.103 1.743.103.483.344.839.723 1.068v.47h-4.324c-.119-.415-.204-.75-.254-1.004a9.165 9.165 0 01-.166-1.617l-.026-1.742c-.015-1.196-.222-1.993-.619-2.39-.397-.4-1.14-.599-2.232-.599h-3.826v7.351h-3.828v-18.747h8.967c1.281.025 2.268.186 2.958.483zm-8.097 2.773v5.037h4.216c.837 0 1.465-.102 1.885-.306.741-.356 1.111-1.06 1.111-2.11 0-1.136-.359-1.9-1.075-2.29-.403-.22-1.007-.33-1.812-.33zM313.551 408.36c.967.433 1.766 1.117 2.395 2.051.568.823.937 1.78 1.105 2.866.098.637.138 1.554.12 2.751h-10.098c.057 1.391.54 2.366 1.45 2.926.554.348 1.22.521 2 .521.824 0 1.495-.21 2.012-.635.281-.229.53-.547.745-.954h3.701c-.097.822-.546 1.657-1.344 2.505-1.242 1.348-2.98 2.022-5.215 2.022-1.845 0-3.473-.568-4.884-1.705-1.41-1.137-2.115-2.987-2.115-5.55 0-2.402.637-4.244 1.91-5.525 1.273-1.282 2.925-1.923 4.957-1.923 1.207 0 2.294.217 3.261.65m-5.423 3.131c-.512.53-.834 1.243-.966 2.147h6.245c-.066-.963-.388-1.693-.965-2.19-.578-.499-1.295-.749-2.15-.749-.93 0-1.652.264-2.164.792M330.663 409.568c1.13 1.195 1.696 2.95 1.696 5.266 0 2.442-.553 4.302-1.658 5.583-1.105 1.28-2.528 1.92-4.27 1.92-1.11 0-2.03-.275-2.764-.826-.401-.306-.794-.75-1.178-1.336v7.224h-3.587v-19.32h3.473v2.048c.392-.601.81-1.077 1.254-1.424.81-.62 1.775-.93 2.893-.93 1.63 0 3.01.599 4.14 1.795m-2.782 2.607c-.492-.822-1.29-1.234-2.396-1.234-1.327 0-2.24.624-2.737 1.87-.257.66-.385 1.5-.385 2.518 0 1.61.432 2.744 1.297 3.397.513.38 1.122.572 1.825.572 1.019 0 1.797-.39 2.332-1.171.536-.78.804-1.818.804-3.116 0-1.068-.247-2.013-.74-2.836M346.477 420.247c-1.17 1.445-2.947 2.167-5.33 2.167-2.382 0-4.158-.722-5.328-2.167-1.17-1.444-1.756-3.183-1.756-5.217 0-2 .586-3.732 1.756-5.197 1.17-1.466 2.946-2.2 5.329-2.2 2.382 0 4.159.734 5.329 2.2 1.17 1.465 1.755 3.198 1.755 5.197 0 2.034-.585 3.773-1.755 5.217m-2.9-2.004c.569-.753.853-1.824.853-3.213 0-1.388-.284-2.457-.853-3.206-.568-.75-1.382-1.124-2.442-1.124s-1.876.375-2.448 1.124c-.573.749-.86 1.818-.86 3.206 0 1.389.287 2.46.86 3.213.572.754 1.388 1.13 2.448 1.13s1.874-.376 2.442-1.13M358.527 407.755c.047.004.151.01.312.019v3.715a9.899 9.899 0 00-1.043-.064c-1.459 0-2.438.474-2.938 1.424-.28.534-.42 1.357-.42 2.468v6.626h-3.65V408.08h3.46v2.416c.56-.924 1.047-1.556 1.462-1.895.678-.568 1.56-.852 2.646-.852.067 0 .125.002.171.006M359.54 410.789v-2.582h1.932v-3.867h3.587v3.867h2.251v2.582h-2.25v7.326c0 .568.071.922.215 1.062s.585.21 1.323.21a10.856 10.856 0 00.712-.025v2.709l-1.717.063c-1.713.059-2.883-.237-3.51-.89-.408-.416-.61-1.056-.61-1.921v-8.534zM380.602 406.426h-3.676v-3.345h3.676zm-3.676 1.653h3.676v13.864h-3.676zM382.688 410.789v-2.582h1.933v-3.867h3.587v3.867h2.25v2.582h-2.25v7.326c0 .568.072.922.216 1.062s.585.21 1.323.21a10.856 10.856 0 00.712-.025v2.709l-1.717.063c-1.713.059-2.883-.237-3.511-.89-.406-.416-.61-1.056-.61-1.921v-8.534zM392.723 418.14h3.854v3.803h-3.854zM261.52 427.236H259V372h2.52z"/></g></g></svg>