<svg height="82" viewBox="0 0 82 82" width="82" xmlns="http://www.w3.org/2000/svg"><g fill="#fff"><circle cx="41" cy="41" fill="none" r="40" stroke="#fff" stroke-width="2"/><path d="M49.685 23.281c2.414 0 4.52.874 6.317 2.62.103.102.206.154.309.154h.102a19.65 19.65 0 004.725-1.746c.052-.052.565-.309.668-.36-.72 2.106-2.003 3.698-3.852 4.88a19.803 19.803 0 002.517-.463c.821-.206 1.643-.514 2.516-.873a14.65 14.65 0 01-1.284 1.695c-.873 1.027-1.9 1.951-2.979 2.773-.102.103-.154.154-.154.308v1.54c-.205 6.112-2.31 11.556-6.265 16.281-3.236 3.75-7.242 6.317-12.07 7.601-1.489.411-3.03.668-4.519.822h-4.314c-1.233 0-2.414-.205-3.595-.462-2.876-.616-5.495-1.695-8.012-3.236l-.154-.154c.668.052 1.284.103 1.952.103 1.643 0 3.338-.205 4.93-.668a16.7 16.7 0 006.163-3.133c-4.057-.359-6.83-2.413-8.269-6.163.514.103 1.079.103 1.592.103.77 0 1.592-.103 2.363-.308-2.054-.462-3.75-1.54-5.085-3.184s-1.951-3.544-1.951-5.7c1.232.667 2.568 1.078 3.954 1.078-1.9-1.387-3.132-3.133-3.646-5.393-.514-2.26-.154-4.417.976-6.471.154.154.257.257.36.41 3.748 4.366 8.422 7.14 14.071 8.372 1.233.257 2.414.411 3.647.514h.205c.103 0 .103-.052.103-.206-.154-.77-.206-1.592-.154-2.362.154-2.517 1.181-4.571 3.081-6.214 1.387-1.233 2.98-1.952 4.828-2.106.205 0 .565-.052.924-.052zm0-3.081c-.462 0-.873 0-1.335.051-2.465.257-4.673 1.233-6.574 2.876-2.31 2.055-3.697 4.571-4.057 7.601h-.103c-4.981-1.078-9.039-3.492-12.377-7.395l-.205-.257-.103-.154a3.112 3.112 0 00-2.363-1.079h-.308c-1.027.103-1.9.668-2.362 1.541-1.541 2.722-1.952 5.65-1.284 8.628.103.514.257 1.028.462 1.541a3.183 3.183 0 00-.822 2.106c0 2.876.873 5.444 2.67 7.6.206.258.36.463.566.668-.154.617-.103 1.233.103 1.85.873 2.208 2.105 4.005 3.697 5.34a14.485 14.485 0 01-3.646.463c-.514 0-1.079-.052-1.644-.103h-.308c-1.13 0-2.208.616-2.722 1.695a3.13 3.13 0 00.411 3.44c.257.309.514.514.873.72 2.825 1.746 5.804 2.979 8.988 3.646 1.284.257 2.722.514 4.211.565H35.151c.36 0 .616 0 .925-.051a27.744 27.744 0 005.084-.925c5.341-1.335 9.912-4.262 13.456-8.525 4.365-5.136 6.728-11.145 6.984-17.873.052-.205.052-.41 0-.616.874-.719 1.644-1.54 2.414-2.362a24.61 24.61 0 001.49-1.952 3.075 3.075 0 00-.77-4.314c.41-1.233.05-2.568-.976-3.338-.565-.463-1.284-.72-1.952-.72-.514 0-1.027.155-1.49.412l-.102.05c-.154.104-.411.206-.514.258-.924.462-1.797.873-2.722 1.13-2.105-1.644-4.57-2.517-7.293-2.517z"/></g></svg>