<svg height="428" viewBox="0 0 433 428" width="433" xmlns="http://www.w3.org/2000/svg"><g fill="none" fill-rule="evenodd"><g font-family="Helvetica-Bold, Helvetica" font-weight="bold" transform="translate(-3 -19)"><g fill="#fff" font-size="75" letter-spacing="-.2343749"><text><tspan x="0" y="73">Hate</tspan></text><text><tspan x="0" y="146">Crime</tspan></text><text><tspan x="0" y="219">Hurts</tspan></text><text><tspan x="0" y="292">Stop</tspan></text><text><tspan x="0" y="365">It</tspan></text><text><tspan x="0" y="438">Here</tspan></text></g><g fill="#f00" font-size="97" letter-spacing="-.3031251"><text><tspan x="192" y="219">.</tspan></text><text><tspan x="165" y="438">.</tspan></text></g></g><g transform="translate(259 372)"><g fill="#fffffe"><path d="m27.3031.0008h8.493c1.399 0 2.552.207 3.46.623 1.723.797 2.585 2.268 2.585 4.413 0 1.12-.231 2.035-.693 2.748-.462.712-1.109 1.285-1.94 1.717.729.297 1.278.687 1.647 1.17s.575 1.267.617 2.353l.089 2.505c.025.713.085 1.243.178 1.591.153.593.424.975.814 1.144v.42h-3.103c-.085-.161-.153-.369-.204-.624-.051-.254-.093-.745-.127-1.475l-.153-3.116c-.057-1.221-.498-2.039-1.322-2.454-.47-.229-1.207-.344-2.212-.344h-5.598v8.013h-2.531zm8.221 8.559c1.154 0 2.067-.237 2.739-.712.673-.475 1.009-1.331 1.009-2.569 0-1.331-.47-2.239-1.411-2.722-.502-.254-1.174-.381-2.015-.381h-6.012v6.384z"/><path d="m53.9179 5.4378c.902.454 1.589 1.041 2.06 1.762.456.686.759 1.488.911 2.403.135.628.202 1.628.202 3.002h-9.908c.042 1.386.366 2.498.972 3.336.606.837 1.544 1.256 2.814 1.256 1.186 0 2.133-.396 2.84-1.189.395-.459.675-.992.84-1.597h2.251c-.059.501-.256 1.058-.591 1.673s-.709 1.117-1.121 1.507c-.69.678-1.544 1.136-2.563 1.374-.546.135-1.165.203-1.855.203-1.685 0-3.114-.617-4.285-1.85-1.171-1.234-1.757-2.962-1.757-5.184 0-2.187.59-3.964 1.77-5.328 1.18-1.366 2.722-2.048 4.626-2.048.961 0 1.892.227 2.794.68zm.82 5.349c-.093-.993-.307-1.786-.643-2.379-.622-1.102-1.661-1.654-3.116-1.654-1.042 0-1.916.38-2.623 1.139-.706.759-1.08 1.723-1.122 2.894z"/><path d="m68.9896 5.7879c.962.746 1.541 2.031 1.736 3.854h-2.225c-.136-.84-.446-1.537-.929-2.093-.483-.555-1.259-.833-2.327-.833-1.459 0-2.502.712-3.13 2.135-.407.923-.61 2.062-.61 3.416 0 1.364.288 2.512.865 3.444.576.931 1.484 1.396 2.722 1.396.949 0 1.702-.289 2.258-.867.555-.579.938-1.37 1.151-2.376h2.225c-.254 1.807-.89 3.127-1.907 3.962-1.018.836-2.32 1.253-3.905 1.253-1.781 0-3.201-.651-4.261-1.952-1.06-1.302-1.59-2.928-1.59-4.878 0-2.391.581-4.252 1.742-5.584 1.162-1.331 2.642-1.997 4.44-1.997 1.534 0 2.783.374 3.745 1.12"/><path d="m82.8852 6.4221c1.204 1.169 1.806 2.889 1.806 5.159 0 2.195-.531 4.008-1.591 5.439-1.061 1.432-2.707 2.148-4.938 2.148-1.862 0-3.339-.633-4.433-1.9-1.095-1.266-1.643-2.967-1.643-5.102 0-2.287.577-4.109 1.73-5.464 1.154-1.356 2.703-2.034 4.648-2.034 1.743 0 3.217.585 4.421 1.754m-1.422 9.053c.558-1.147.837-2.424.837-3.83 0-1.27-.201-2.303-.604-3.099-.637-1.254-1.735-1.881-3.295-1.881-1.384 0-2.389.534-3.018 1.601s-.944 2.355-.944 3.862c0 1.448.315 2.655.944 3.62.629.966 1.626 1.448 2.993 1.448 1.5 0 2.53-.573 3.087-1.721"/><path d="m95.0751 5.6097c.431.297.87.729 1.318 1.297v-1.717h2.111v12.388c0 1.73-.254 3.095-.76 4.096-.947 1.848-2.734 2.773-5.362 2.773-1.463 0-2.692-.329-3.689-.986-.998-.657-1.556-1.685-1.674-3.084h2.328c.109.61.328 1.081.657 1.411.514.509 1.324.763 2.429.763 1.746 0 2.888-.619 3.428-1.856.321-.73.468-2.031.443-3.905-.457.695-1.005 1.212-1.647 1.552-.642.339-1.491.508-2.547.508-1.469 0-2.756-.523-3.858-1.57-1.102-1.048-1.653-2.78-1.653-5.196 0-2.281.555-4.062 1.666-5.342s2.452-1.921 4.022-1.921c1.065 0 1.994.263 2.788.789m.28 2.454c-.691-.813-1.573-1.221-2.645-1.221-1.602 0-2.699.755-3.29 2.264-.312.806-.468 1.862-.468 3.167 0 1.535.31 2.703.93 3.504.62.802 1.453 1.203 2.5 1.203 1.636 0 2.787-.742 3.454-2.226.371-.84.557-1.819.557-2.938 0-1.688-.346-2.939-1.038-3.753"/><path d="m101.9892 5.0624h2.175v1.934c.644-.798 1.327-1.37 2.048-1.718.72-.347 1.522-.521 2.404-.521 1.933 0 3.239.674 3.917 2.022.373.738.56 1.794.56 3.167v8.738h-2.328v-8.585c0-.831-.123-1.501-.369-2.01-.407-.848-1.144-1.272-2.213-1.272-.543 0-.987.056-1.335.166-.628.186-1.179.559-1.654 1.119-.381.449-.629.914-.744 1.393-.114.479-.171 1.164-.171 2.054v7.135h-2.29z"/><path d="m116.476.001h2.328v2.594h-2.328zm0 5.125h2.328v13.559h-2.328z"/><path d="m123.6235 14.4111c.069.763.264 1.348.585 1.755.588.738 1.609 1.107 3.063 1.107.865 0 1.627-.185 2.285-.554.657-.368.987-.939.987-1.71 0-.585-.264-1.03-.789-1.336-.336-.186-1-.402-1.99-.648l-1.849-.458c-1.18-.289-2.051-.611-2.611-.967-1-.619-1.5-1.475-1.5-2.569 0-1.289.471-2.332 1.412-3.129s2.206-1.195 3.796-1.195c2.08 0 3.579.602 4.498 1.806.576.762.855 1.585.838 2.467h-2.162c-.043-.515-.23-.982-.559-1.404-.539-.599-1.472-.898-2.8-.898-.885 0-1.556.164-2.012.494-.455.329-.683.765-.683 1.305 0 .592.299 1.065.898 1.42.346.211.855.397 1.529.558l1.543.369c1.676.399 2.799.785 3.369 1.158.89.585 1.336 1.505 1.336 2.76 0 1.212-.467 2.259-1.398 3.142-.931.881-2.35 1.322-4.256 1.322-2.051 0-3.505-.46-4.359-1.38s-1.311-2.058-1.371-3.415z"/><path d="m143.701 5.4378c.902.454 1.589 1.041 2.06 1.762.456.686.759 1.488.911 2.403.135.628.202 1.628.202 3.002h-9.908c.042 1.386.366 2.498.972 3.336.605.837 1.544 1.256 2.814 1.256 1.186 0 2.133-.396 2.84-1.189.395-.459.675-.992.84-1.597h2.251c-.059.501-.256 1.058-.591 1.673s-.709 1.117-1.121 1.507c-.691.678-1.545 1.136-2.563 1.374-.546.135-1.165.203-1.855.203-1.685 0-3.114-.617-4.285-1.85-1.171-1.234-1.757-2.962-1.757-5.184 0-2.187.59-3.964 1.77-5.328 1.18-1.366 2.722-2.048 4.626-2.048.961 0 1.892.227 2.794.68zm.82 5.349c-.093-.993-.307-1.786-.643-2.379-.622-1.102-1.661-1.654-3.116-1.654-1.042 0-1.916.38-2.623 1.139-.706.759-1.08 1.723-1.122 2.894z"/><path d="m157.011.001h2.328v2.594h-2.328zm0 5.125h2.328v13.559h-2.328z"/><path d="m163.2564 1.2596h2.315v3.803h2.174v1.87h-2.174v8.89c0 .475.16.793.483.955.178.093.475.139.89.139.11 0 .229-.003.356-.008.128-.006.276-.02.445-.042v1.818c-.262.076-.536.131-.82.165s-.591.052-.922.052c-1.068 0-1.793-.274-2.175-.821-.381-.547-.572-1.257-.572-2.13v-9.018h-1.844v-1.87h1.844z"/><path d="m170.582 15.912h2.658v2.773h-2.658z"/></g><g fill="#d8232a"><path d="m39.0121 31.6785c.691.297 1.276.733 1.755 1.31.397.475.711 1.001.943 1.577.231.577.347 1.234.347 1.972 0 .89-.225 1.766-.674 2.626-.449.861-1.191 1.469-2.226 1.825.865.348 1.477.842 1.838 1.482.36.64.541 1.618.541 2.932v1.259c0 .856.034 1.437.103 1.743.103.483.344.839.723 1.068v.47h-4.324c-.119-.415-.204-.75-.254-1.004-.102-.526-.158-1.064-.166-1.616l-.026-1.742c-.015-1.196-.222-1.993-.619-2.391-.397-.399-1.141-.598-2.232-.598h-3.826v7.351h-3.828v-18.747h8.967c1.281.025 2.268.186 2.958.483zm-8.097 2.773v5.037h4.216c.837 0 1.465-.102 1.885-.306.741-.356 1.111-1.06 1.111-2.111 0-1.136-.359-1.9-1.075-2.29-.403-.22-1.007-.33-1.812-.33z"/><path d="m54.5511 36.3601c.967.433 1.766 1.117 2.395 2.051.568.823.937 1.779 1.105 2.866.098.637.138 1.554.12 2.751h-10.098c.057 1.391.54 2.366 1.45 2.926.554.348 1.22.521 1.999.521.825 0 1.496-.211 2.013-.635.281-.229.529-.547.745-.954h3.701c-.097.822-.546 1.657-1.344 2.505-1.242 1.348-2.98 2.022-5.215 2.022-1.845 0-3.473-.568-4.884-1.705-1.41-1.137-2.115-2.987-2.115-5.551 0-2.401.637-4.243 1.909-5.524 1.274-1.282 2.926-1.923 4.958-1.923 1.207 0 2.294.217 3.261.65m-5.423 3.131c-.512.529-.834 1.243-.966 2.147h6.245c-.066-.963-.388-1.693-.965-2.191-.578-.498-1.295-.748-2.15-.748-.931 0-1.652.264-2.164.792"/><path d="m71.6627 37.5677c1.131 1.195 1.696 2.95 1.696 5.266 0 2.442-.553 4.302-1.658 5.583-1.105 1.28-2.528 1.92-4.269 1.92-1.11 0-2.031-.275-2.765-.826-.401-.306-.794-.75-1.178-1.336v7.224h-3.587v-19.319h3.473v2.047c.392-.601.81-1.077 1.254-1.424.811-.619 1.775-.929 2.893-.929 1.63 0 3.01.598 4.141 1.794m-2.783 2.607c-.492-.822-1.29-1.234-2.396-1.234-1.327 0-2.24.624-2.737 1.87-.257.661-.385 1.501-.385 2.518 0 1.611.432 2.744 1.297 3.397.513.381 1.122.572 1.825.572 1.019 0 1.797-.39 2.332-1.171.536-.78.804-1.818.804-3.116 0-1.068-.247-2.013-.74-2.836"/><path d="m87.4767 48.2467c-1.17 1.445-2.947 2.167-5.329 2.167-2.383 0-4.159-.722-5.329-2.167-1.17-1.444-1.756-3.183-1.756-5.217 0-1.999.586-3.732 1.756-5.197 1.17-1.466 2.946-2.199 5.329-2.199 2.382 0 4.159.733 5.329 2.199 1.17 1.465 1.755 3.198 1.755 5.197 0 2.034-.585 3.773-1.755 5.217m-2.9-2.004c.569-.753.853-1.824.853-3.213 0-1.388-.284-2.457-.853-3.206-.568-.749-1.382-1.124-2.442-1.124s-1.876.375-2.448 1.124c-.573.749-.859 1.818-.859 3.206 0 1.389.286 2.46.859 3.213.572.754 1.388 1.131 2.448 1.131s1.874-.377 2.442-1.131"/><path d="m99.5274 35.7547c.047.004.151.011.312.019v3.715c-.229-.026-.433-.043-.611-.052-.178-.008-.322-.012-.432-.012-1.459 0-2.438.474-2.938 1.424-.28.534-.42 1.357-.42 2.468v6.626h-3.65v-13.863h3.459v2.416c.56-.924 1.048-1.556 1.463-1.895.678-.568 1.56-.852 2.646-.852.067 0 .125.002.171.006"/><path d="m100.5393 38.7886v-2.582h1.933v-3.867h3.587v3.867h2.251v2.582h-2.251v7.326c0 .568.072.922.216 1.062s.585.21 1.323.21c.11 0 .226-.002.35-.006.122-.005.243-.011.362-.019v2.709l-1.717.063c-1.713.059-2.883-.237-3.511-.89-.407-.416-.61-1.056-.61-1.921v-8.534z"/><path d="m121.602 34.426h-3.676v-3.345h3.676zm-3.676 1.653h3.676v13.864h-3.676z"/><path d="m123.6878 38.7886v-2.582h1.933v-3.867h3.587v3.867h2.251v2.582h-2.251v7.326c0 .568.072.922.216 1.062s.585.21 1.323.21c.11 0 .226-.002.35-.006.122-.005.243-.011.362-.019v2.709l-1.717.063c-1.713.059-2.883-.237-3.511-.89-.406-.416-.61-1.056-.61-1.921v-8.534z"/><path d="m133.723 46.14h3.854v3.803h-3.854z"/><path d="m2.52 55.236h-2.52v-55.236h2.52z"/></g></g></g></svg>