<svg height="82" viewBox="0 0 82 82" width="82" xmlns="http://www.w3.org/2000/svg"><g fill="#fff"><circle cx="41" cy="41" fill="none" r="40" stroke="#fff" stroke-width="2"/><path d="m33.4854321 3.08148148c2.4138272 0 4.5195062.87308642 6.317037 2.61925926.1027161.10271605.2054321.15407407.3081482.15407407h.102716c1.7975309-.41086419 3.3382716-1.02716049 4.7249383-1.74617283.051358-.05135803.5649383-.30814815.6676543-.35950618-.7190123 2.10567901-2.0029629 3.69777778-3.8518518 4.87901235.8730864-.10271605 1.6948148-.25679013 2.5165432-.46222222.8217284-.2054321 1.6434568-.51358025 2.5165432-.87308642-.4108642.61629629-.8217284 1.18123456-1.2839506 1.69481481-.8730864 1.02716048-1.9002469 1.95160498-2.9787655 2.77333338-.102716.102716-.154074.154074-.154074.3081481v1.4893827.051358c-.2054321 6.111605-2.3111111 11.5555556-6.265679 16.2804939-3.2355556 3.7491358-7.2414815 6.317037-12.0691358 7.6009876-1.4893828.4108642-3.0301235.6676543-4.5195062.8217284-.2054321 0-.4108642 0-.6676543 0-.3081482 0-.5649383 0-.8730865 0-.5649382 0-1.1298765 0-1.6434567 0-.3595062 0-.7190124 0-1.1298766 0-1.2325926 0-2.4138272-.2054321-3.5950617-.4622222-2.8760494-.6162963-5.49530866-1.6948148-8.01185187-3.2355556-.05135803-.051358-.10271605-.102716-.15407408-.154074.66765433.051358 1.28395062.102716 1.95160494.102716 1.64345679 0 3.33827161-.2054321 4.93037041-.6676543 2.259753-.6162963 4.314074-1.6434568 6.1629629-3.1328395-4.0572839-.3595062-6.83061726-2.4138272-8.26864195-6.162963.51358025.1027161 1.07851852.1027161 1.59209877.1027161.77037038 0 1.59209878-.1027161 2.36246918-.3081482-2.054321-.4622222-3.74913585-1.5407407-5.08444449-3.1841975s-1.95160494-3.5437037-1.95160494-5.7007407c1.23259259.6676543 2.56790123 1.0785185 3.9545679 1.0785185-1.90024691-1.3866667-3.13283951-3.1328395-3.64641975-5.3925926-.51358025-2.2597531-.15407408-4.41679014.97580247-6.47111113.15407407.15407408.25679012.25679013.35950617.4108642 3.74913584 4.3654321 8.42271604 7.13876543 14.07209874 8.37135803 1.2325926.2567901 2.4138272.4108642 3.6464198.5135802h.1540741.051358c.102716 0 .102716-.051358.102716-.2054321-.154074-.7703703-.2054321-1.5920987-.154074-2.3624691.154074-2.5165432 1.1812345-4.57086419 3.0814814-6.21432098 1.3866667-1.23259259 2.9787655-1.95160494 4.8276544-2.10567901.2054321 0 .5649382-.05135803.9244444-.05135803zm0-3.08148148c-.4622222 0-.8730864 0-1.3353086.05135802-2.4651852.25679013-4.6735803 1.2325926-6.5738272 2.87604939-2.3111111 2.05432099-3.6977778 4.57086419-4.057284 7.60098769-.051358 0-.051358 0-.102716 0-4.9817284-1.07851856-9.0390123-3.49234572-12.37728395-7.39555559l-.2054321-.25679013-.10271605-.15407407c-.56493827-.66765432-1.43802469-1.07851852-2.36246914-1.07851852-.10271605 0-.2054321 0-.30814815 0-1.02716049.10271605-1.90024691.66765432-2.36246913 1.54074074-1.54074074 2.72197531-1.95160494 5.64938272-1.28395062 8.62814817.10271605.5135802.25679012 1.0271605.46222222 1.5407407-.51358024.5649383-.82172839 1.3353087-.82172839 2.105679 0 2.8760494.87308642 5.4439506 2.67061728 7.6009877.2054321.2567901.35950617.4622222.56493827.6676543-.15407407.6162963-.10271605 1.2325926.10271605 1.8488889.87308642 2.2083951 2.10567901 4.0059259 3.69777778 5.3412346-1.18123457.3081481-2.41382716.4622222-3.64641975.4622222-.51358025 0-1.07851852-.051358-1.64345679-.1027161-.10271605 0-.2054321 0-.30814815 0-1.12987654 0-2.20839506.6162963-2.72197531 1.6948149-.56493827 1.1298765-.4108642 2.4651851.4108642 3.4409876.25679012.3081482.51358024.5135803.87308642.7190124 2.82469136 1.7461728 5.80345679 2.9787654 8.98765431 3.6464197 1.2839506.2567901 2.7219753.5135803 4.211358.5649383h1.1298766.9758024.6676544.4108642.5135802c.3595062 0 .6162963 0 .9244445-.051358 1.7461728-.1540741 3.4409876-.4622223 5.0844444-.9244445 5.3412346-1.3353086 9.9120988-4.262716 13.4558025-8.5254321 4.3654321-5.1358025 6.7279012-11.1446913 6.9846913-17.8725926.0513581-.2054321.0513581-.4108642 0-.6162963.8730864-.7190123 1.6434568-1.5407407 2.4138272-2.3624691.5649383-.6676543 1.0271605-1.28395063 1.4893827-1.95160495.3595062-.51358025.5649383-1.12987655.5649383-1.74617284 0-1.07851852-.5135803-2.00296297-1.3353087-2.56790124.4108642-1.23259259.0513581-2.56790123-.9758024-3.3382716-.5649383-.46222223-1.2839507-.71901235-1.951605-.71901235-.5135802 0-1.0271605.15407408-1.4893827.4108642l-.102716.05135802c-.1540741.10271605-.4108642.2054321-.5135803.25679013-.9244444.46222222-1.7975309.87308642-2.7219753 1.12987654-2.105679-1.64345679-4.5708642-2.51654321-7.2928395-2.51654321z" transform="translate(16.2 20.2)"/></g></svg>